<?xml version="1.0" encoding="UTF-8"?>
<svg width="500px" height="500px" viewBox="0 0 500 500" version="1.1" xmlns="http://www.w3.org/2000/svg" xmlns:xlink="http://www.w3.org/1999/xlink">
    <!-- Generator: Sketch 60 (88103) - https://sketch.com -->
    <title>500</title>
    <desc>Created with Sketch.</desc>
    <defs>
        <radialGradient cx="50%" cy="-4.54843572%" fx="50%" fy="-4.54843572%" r="135.799421%" gradientTransform="translate(0.500000,-0.045484),scale(1.000000,0.896552),rotate(90.000000),translate(-0.500000,0.045484)" id="radialGradient-1">
            <stop stop-color="#FEFFFF" offset="0%"></stop>
            <stop stop-color="#F6FFFF" offset="0%"></stop>
            <stop stop-color="#D3FEFF" offset="19.6790541%"></stop>
            <stop stop-color="#03F9FB" offset="41.0868877%"></stop>
            <stop stop-color="#0B72BA" offset="63.7536951%"></stop>
            <stop stop-color="#0F1C69" offset="85.3985546%"></stop>
            <stop stop-color="#0E154D" offset="100%"></stop>
        </radialGradient>
    </defs>
    <g id="Blue-Logo" stroke="none" stroke-width="1" fill="none" fill-rule="evenodd">
        <path d="M42,461.986932 C70.3421061,407.916366 117.018068,368.214405 173.304231,349.250139 C151.681587,328.803246 138.13841,299.803843 138.13841,267.662797 L138.13841,134.598295 L180.786623,134.598295 L180.786623,267.662797 C180.786623,305.777253 211.611802,336.788451 249.49763,336.788451 C287.38346,336.788451 318.208638,305.777253 318.208638,267.662797 L318.208638,167.997904 C318.208638,129.883448 287.38346,98.8722489 249.49763,98.8722489 L218.520813,98.8722489 C174.199843,98.8722489 138.13841,62.5931985 138.13841,18 L180.786623,18 C180.786623,38.9379226 197.713224,55.96667 218.520813,55.96667 L249.49763,55.96667 C310.901579,55.96667 360.856851,106.223405 360.856851,167.997904 L360.856851,267.662797 C360.856851,299.803843 347.313675,328.803246 325.695769,349.250139 C381.977192,368.214405 429.653155,407.916366 458,461.986932 L420.275287,482 C387.194491,418.895428 321.757918,379.69403 249.49763,379.69403 C177.237343,379.69403 111.800771,418.895428 78.7247126,482 L42,461.986932 Z" id="Path-500" stroke="#000000" stroke-width="0.2" fill="url(#radialGradient-1)" fill-rule="nonzero"></path>
    </g>
</svg>